<svg width="24" height="28" viewBox="0 0 24 28" fill="none" xmlns="http://www.w3.org/2000/svg">
<path d="M13.7145 6.28564C12.4574 6.28564 11.4287 7.31412 11.4287 8.57139C11.4287 9.82845 12.4572 10.8571 13.7145 10.8571C14.9715 10.8571 16.0002 9.82866 16.0002 8.57139C16 7.31412 14.9715 6.28564 13.7145 6.28564Z" fill="white"/>
<path d="M15.9999 23.9999H0C0 25.8856 1.5429 27.4285 3.42862 27.4285H17.5427C16.6283 26.5712 15.9996 25.3712 15.9996 23.9999H15.9999Z" fill="white"/>
<path d="M22.2859 0H5.14305C4.17156 0 3.42871 0.742848 3.42871 1.71433V21.4285C3.42871 22.2285 4.05737 22.857 4.85721 22.857H17.1429V23.9998C17.1429 26.057 18.9714 27.6569 21.0285 27.3713C22.7428 27.1426 23.9999 25.5999 23.9999 23.8284V1.71433C23.9999 0.742848 23.257 0 22.2858 0H22.2859ZM16.0003 19.4281C16.0003 19.6568 15.8861 19.8282 15.7147 19.9424C15.6005 19.9996 15.5433 19.9996 15.4291 19.9996C15.3149 19.9996 15.2005 19.9424 15.1435 19.8854L13.7148 18.9711L12.3432 19.8854C12.1718 19.9996 11.9432 19.9996 11.7718 19.8854C11.5432 19.8282 11.429 19.6568 11.429 19.4281V13.9427L11.6004 13.9999L12.5146 14.9142C12.8574 15.257 13.2575 15.4284 13.7147 15.4284C14.1719 15.4284 14.6289 15.257 14.9148 14.9142L15.829 13.9999L16.0004 13.9427L16.0003 19.4281ZM19.2575 8.97149L18.1719 10.0572L17.8863 10.7428V12.2285C17.8863 12.5713 17.6006 12.8 17.3148 12.8H15.8291L15.1434 13.0856L14.0578 14.1713C14.0004 14.2285 13.8862 14.2857 13.7147 14.2857C13.5433 14.2857 13.4291 14.2285 13.3147 14.1143L12.229 13.0286L11.5434 12.743H10.0577C9.77208 12.743 9.48623 12.4574 9.48623 12.1715V10.6858L9.20062 10.0002L8.11494 8.91448C7.88633 8.68587 7.88633 8.34302 8.11494 8.11444L9.20062 7.08596L9.48623 6.40031V4.91462C9.48623 4.5718 9.77185 4.34315 10.0577 4.34315H11.5434L12.229 4.05754L13.3147 2.97187C13.5433 2.74325 13.8862 2.74325 14.1148 2.97187L15.2004 4.05754L15.8861 4.34315H17.3718C17.6574 4.34315 17.9432 4.57177 17.9432 4.91462V6.40031L18.2289 7.08596L19.3145 8.11444C19.4862 8.40005 19.4862 8.7429 19.2575 8.97149Z" fill="white"/>
</svg>
