<svg width="24" height="22" viewBox="0 0 24 22" fill="none" xmlns="http://www.w3.org/2000/svg">
<path d="M23.5735 19.1104C23.7432 19.7383 23.5604 20.4076 23.0936 20.8671C22.6268 21.3265 21.9468 21.5064 21.3089 21.3394L19.1858 20.7822C17.9665 21.3979 16.6151 21.7175 15.2447 21.7143C14.8074 21.7143 14.3707 21.682 13.9382 21.618C12.2573 21.3559 10.6927 20.6102 9.44167 19.4748C9.7466 19.4748 10.0404 19.4748 10.3453 19.4106C12.4523 19.1013 14.4208 18.1907 16.0071 16.7913C17.5934 15.3918 18.7276 13.5651 19.2695 11.5375C19.8112 9.50983 19.7368 7.37021 19.0553 5.3836C20.3334 5.98636 21.4427 6.88708 22.2869 8.00759C23.1314 9.12792 23.6851 10.4342 23.9002 11.813C24.1754 13.5797 23.8781 15.3869 23.051 16.9777L23.5735 19.1104ZM14.8635 2.79025C13.3364 1.29036 11.298 0.401626 9.14291 0.296321C6.98813 0.191016 4.87022 0.876669 3.19931 2.22033C1.52864 3.56399 0.424286 5.47022 0.0998569 7.56961C-0.175364 9.33647 0.121729 11.1435 0.949028 12.7347L0.382898 14.8779V14.8778C0.294682 15.1861 0.292494 15.5121 0.376883 15.8214C0.461091 16.1307 0.628774 16.4119 0.861917 16.6353C1.08884 16.8647 1.37462 17.0298 1.68888 17.1127C2.00311 17.1957 2.33428 17.1936 2.64761 17.1068L4.77065 16.5496C5.99455 17.1468 7.34574 17.4479 8.71181 17.4282C10.4355 17.4295 12.1208 16.9276 13.5547 15.9856C14.9882 15.0437 16.1057 13.7044 16.7655 12.1372C17.4253 10.5699 17.5977 8.84518 17.2611 7.18152C16.9244 5.51781 16.0938 3.98958 14.8743 2.79072L14.8635 2.79025Z" fill="#E6EBE5"/>
</svg>
