<svg width="24" height="24" viewBox="0 0 24 24" fill="none" xmlns="http://www.w3.org/2000/svg">
<path fill-rule="evenodd" clip-rule="evenodd" d="M12 0C18.6273 0 24 5.37268 24 12C24 18.6273 18.6273 24 12 24C5.37268 24 0 18.6273 0 12C0 5.37268 5.37268 0 12 0ZM7.15495 8.64107C7.15495 7.97625 7.38597 7.3177 7.74718 6.61414C8.64386 4.86782 10.3627 3.89957 12.0837 3.91902C14.5043 3.94685 16.8447 5.80409 16.8447 8.301C16.8447 8.89805 16.7321 9.561 16.5105 10.0103C16.2889 10.4595 16.0242 10.8479 15.7163 11.1713C15.4119 11.4983 14.8625 12.0481 14.0682 12.8209C13.8466 13.0364 13.671 13.2271 13.5387 13.3924C13.4067 13.5577 13.3071 13.7086 13.2443 13.8454C13.178 13.9819 13.1269 14.1181 13.0919 14.255C13.0574 14.391 13.047 14.9581 13.057 15.363C13.0813 16.3317 10.8794 16.4355 10.6511 15.5708C10.5814 15.3103 10.5871 14.9705 10.5871 14.6503C10.5871 14.0612 10.6695 13.5508 10.8386 13.1195C11.0071 12.6882 11.2287 12.3107 11.5068 11.9836C11.7847 11.6565 12.162 11.2686 12.6318 10.8193C13.0457 10.4274 13.3469 10.1294 13.5287 9.93163C13.7139 9.73032 13.8696 9.50703 13.9951 9.26306C14.1211 9.01885 14.1837 8.74932 14.1837 8.46158C14.1837 6.31915 10.526 4.73627 9.72912 8.66037C9.34051 10.576 7.15474 10.035 7.15474 8.64133L7.15495 8.64107ZM11.8841 20.0813C11.4902 20.0813 11.146 19.9415 10.8514 19.6642C10.5569 19.3875 10.4115 19.0961 10.4115 18.5961C10.4115 18.1543 10.5705 17.9038 10.8551 17.6018C11.1393 17.2999 11.4871 17.1492 11.9006 17.1492C12.3075 17.1492 12.6517 17.2999 12.9296 17.6018C13.2075 17.9038 13.3301 18.1543 13.3301 18.5961C13.3301 19.0885 13.1847 19.3806 12.8936 19.6606C12.6023 19.941 12.2677 20.081 11.8841 20.081L11.8841 20.0813Z" fill="white"/>
</svg>
