<svg width="24" height="24" viewBox="0 0 24 24" fill="none" xmlns="http://www.w3.org/2000/svg">
<path fill-rule="evenodd" clip-rule="evenodd" d="M9.81784 22.6394V16.0936C9.81784 16.0211 9.84688 15.9517 9.89747 15.9005C9.94879 15.8498 10.018 15.8209 10.0907 15.8209H13.909C13.9817 15.8209 14.0509 15.8498 14.1022 15.9005C14.1528 15.9517 14.1818 16.0211 14.1818 16.0936V22.6394C14.1818 23.001 14.3252 23.348 14.5811 23.6038C14.837 23.8596 15.1838 24.0032 15.5454 24.0032H19.3639C19.7255 24.0032 20.0725 23.8596 20.3282 23.6038C20.5841 23.3481 20.7277 23.001 20.7277 22.6394V12.8207C20.7277 12.7482 20.7565 12.6787 20.8073 12.6276C20.8585 12.5768 20.9279 12.548 21.0004 12.548H22.5234C23.1403 12.548 23.6978 12.1518 23.9116 11.5431C24.12 10.9497 23.9514 10.2842 23.4948 9.87232L12.9715 0.378057C12.4124 -0.126019 11.5876 -0.126019 11.0285 0.378057C9.17105 2.05379 3.50596 7.16515 0.505162 9.87232C0.0485619 10.2842 -0.120012 10.9497 0.0883747 11.5431C0.302246 12.1519 0.859661 12.548 1.47661 12.548H2.99963C3.07214 12.548 3.14155 12.5768 3.19269 12.6276C3.24346 12.6788 3.27232 12.7482 3.27232 12.8207V22.6394C3.27232 23.001 3.41587 23.348 3.67175 23.6038C3.92745 23.8596 4.27448 24.0032 4.63609 24.0032H8.45456C8.81619 24.0032 9.16301 23.8596 9.4189 23.6038C9.67478 23.3481 9.81816 23.001 9.81816 22.6394H9.81784Z" fill="white"/>
</svg>
