<svg width="18" height="22" viewBox="0 0 18 22" fill="none" xmlns="http://www.w3.org/2000/svg">
<path d="M17.9996 10.2571C17.9996 9.2114 17.2523 8.15289 15.8249 8.15289H9.3539C10.2783 6.56394 10.5502 4.32908 9.90754 2.69417C9.43552 1.49153 8.53334 0.789608 7.36603 0.718282L7.34713 0.716796C6.58737 0.672039 5.92993 1.21887 5.86665 1.94751C5.70027 3.56931 4.96064 6.43802 3.90079 7.45654C3.00837 8.31401 2.24448 8.67321 0.978037 9.26813C0.794805 9.35434 0.594562 9.44831 0.382812 9.54972C0.386594 9.59382 0.389 9.63775 0.389 9.68283V19.8468C0.541809 19.8972 0.69272 19.9471 0.84104 19.996C2.93099 20.6881 4.73717 21.2857 7.49777 21.2857H12.7293C14.1569 21.2857 14.904 20.2269 14.904 19.1814C14.904 18.8711 14.8385 18.5599 14.7087 18.275C15.1841 18.1929 15.6005 17.9731 15.9088 17.6369C16.2587 17.2547 16.4516 16.7468 16.4516 16.2066C16.4516 15.8973 16.3861 15.5863 16.2569 15.3021C17.403 15.112 17.9998 14.1666 17.9998 13.2322C17.9998 12.6901 17.7988 12.1444 17.4067 11.7449C17.7981 11.3451 17.9994 10.7994 17.9994 10.2574L17.9996 10.2571Z" fill="white"/>
</svg>
