<svg width="167" height="90" viewBox="0 0 167 90" fill="none" xmlns="http://www.w3.org/2000/svg">
<mask id="mask0_609_1289" style="mask-type:luminance" maskUnits="userSpaceOnUse" x="92" y="0" width="75" height="8">
<path d="M92.1743 0H166.143V7.98956H92.1743V0Z" fill="white"/>
</mask>
<g mask="url(#mask0_609_1289)">
<mask id="mask1_609_1289" style="mask-type:luminance" maskUnits="userSpaceOnUse" x="91" y="-4" width="76" height="16">
<path d="M92.2385 -3.35303L166.934 3.67731L166.158 11.9239L91.4634 4.89355L92.2385 -3.35303Z" fill="white"/>
</mask>
<g mask="url(#mask1_609_1289)">
<mask id="mask2_609_1289" style="mask-type:luminance" maskUnits="userSpaceOnUse" x="91" y="-4" width="76" height="16">
<path d="M92.2385 -3.35303L166.934 3.67731L166.158 11.9239L91.4634 4.89355L92.2385 -3.35303Z" fill="white"/>
</mask>
<g mask="url(#mask2_609_1289)">
<path d="M165.717 6.92667C147.434 2.16084 128.536 0.0652366 109.659 0.176305C107.055 0.190991 104.453 0.260753 101.852 0.357134C100.541 0.405784 99.2338 0.466367 97.9249 0.538882C96.5279 0.615987 94.9997 0.546225 93.6376 0.880347C92.5121 1.15572 91.9287 2.39858 92.6735 3.38626C92.9111 3.70662 93.1588 4.01963 93.4128 4.32621C94.0623 5.14224 95.0538 4.73009 95.3419 3.93518C97.0993 3.83145 98.8917 3.49917 100.612 3.35138C102.844 3.16137 105.08 3.01359 107.317 2.90252C111.887 2.67488 116.464 2.57941 121.037 2.66386C130.739 2.84377 140.427 3.67174 150.018 5.13765C155.184 5.92798 160.323 6.8358 165.433 7.93363C166.077 8.07131 166.368 7.09649 165.717 6.92667Z" fill="white"/>
</g>
</g>
</g>
<path d="M38.518 66.6769V44.9957H18.3454V66.6769H0V9.52734H18.3454V30.3751H38.518V9.52734H56.8634V66.6769H38.518Z" fill="white"/>
<path d="M92.7622 27.0522C92.7622 30.5431 91.8201 33.7007 89.937 36.5251C88.0556 39.3477 85.3176 41.4232 81.7219 42.7523L94.4206 66.6769H73.8334L63.7067 45.8255H56.9006V66.6769H38.5552V9.52734H73.5032C77.5979 9.52734 81.0982 10.3168 84.0041 11.8956C86.91 13.4726 89.0949 15.604 90.5607 18.2916C92.0283 20.9775 92.7622 23.8973 92.7622 27.0522ZM74.0829 27.8013C74.0829 26.306 73.5848 25.0604 72.5896 24.0635C71.5934 23.0676 70.3771 22.5691 68.9388 22.5691H56.9006V33.1178H68.9388C70.3771 33.1178 71.5934 32.6066 72.5896 31.5831C73.5848 30.5578 74.0829 29.2975 74.0829 27.8013Z" fill="white"/>
<path d="M98.4555 21.1062C106.478 21.1062 112.607 22.9898 116.841 26.7569C121.075 30.5222 123.192 36.2803 123.192 44.0321V46.8556H90.3212C90.3212 50.0133 91.0256 52.3953 92.4346 54.0007C93.8453 55.6071 96.0743 56.4093 99.1196 56.4093C101.886 56.4093 103.919 55.8283 105.218 54.6653C106.518 53.5032 107.17 51.9519 107.17 50.0133H123.192C123.192 55.3298 121.172 59.4843 117.131 62.4749C113.092 65.4637 107.199 66.958 99.4499 66.958C91.3164 66.958 85.0084 65.0625 80.5247 61.2706C76.0411 57.4769 73.7993 51.7307 73.7993 44.0321C73.7993 36.5006 75.9843 30.7976 80.356 26.9221C84.7295 23.0448 90.7624 21.1062 98.4555 21.1062ZM99.1196 31.6549C93.9169 31.6549 91.011 34.1204 90.4019 39.0497H106.505C106.505 36.7787 105.854 34.9778 104.554 33.6486C103.255 32.3195 101.443 31.6549 99.1196 31.6549Z" fill="white"/>
<path d="M5.03685 79.8189V76.9991H2.41713V79.8189H0.0322266V72.3911H2.41713V75.1008H5.03685V72.3911H7.42175V79.8189H5.03685Z" fill="white"/>
<path d="M13.0015 79.8189L12.8621 78.9561C12.6365 79.2645 12.342 79.5068 11.9779 79.6831C11.6155 79.8593 11.234 79.9474 10.8331 79.9474C10.1699 79.9474 9.67369 79.7639 9.34347 79.3967C9.01325 79.0295 8.84814 78.5008 8.84814 77.8105V74.1168H10.9946V77.5498C10.9946 77.7949 11.0569 77.9923 11.1817 78.141C11.3083 78.2878 11.4871 78.3613 11.7174 78.3613C11.9834 78.3613 12.1989 78.2759 12.3631 78.1043C12.5291 77.9308 12.6126 77.7178 12.6126 77.4654V74.1168H14.759V79.8189H13.0015Z" fill="white"/>
<path d="M23.6291 73.9885C24.2767 73.9885 24.7629 74.1749 25.0857 74.5466C25.4086 74.9165 25.5701 75.4425 25.5701 76.1254V79.8191H23.4237V76.3861C23.4237 76.142 23.3631 75.9455 23.2439 75.7987C23.1265 75.65 22.9595 75.5747 22.7449 75.5747C22.4926 75.5747 22.2872 75.6619 22.1285 75.8354C21.9716 76.007 21.8936 76.2191 21.8936 76.4706V79.8191H19.7436V76.3861C19.7436 76.142 19.683 75.9455 19.5638 75.7987C19.4464 75.65 19.2794 75.5747 19.0648 75.5747C18.8125 75.5747 18.6071 75.6619 18.4484 75.8354C18.2915 76.007 18.2136 76.2191 18.2136 76.4706V79.8191H16.0635V74.117H17.8246L17.9641 74.9689C18.1787 74.6678 18.464 74.4291 18.819 74.2529C19.1758 74.0766 19.5528 73.9885 19.949 73.9885C20.8048 73.9885 21.3809 74.3153 21.6772 74.9689C21.8991 74.6678 22.1844 74.4291 22.5321 74.2529C22.8815 74.0766 23.2475 73.9885 23.6291 73.9885Z" fill="white"/>
<path d="M29.671 73.9885C30.5415 73.9885 31.2496 74.1345 31.7954 74.4255C32.343 74.7174 32.6173 75.191 32.6173 75.8464V78.0714C32.6173 78.1944 32.6448 78.2945 32.7017 78.3725C32.7604 78.4514 32.8466 78.49 32.9622 78.49H33.3511V79.731C33.3291 79.7457 33.2722 79.7705 33.1823 79.8045C33.0943 79.8357 32.9668 79.8678 32.8007 79.8999C32.6338 79.9311 32.443 79.9476 32.2284 79.9476C31.8101 79.9476 31.4661 79.8852 31.1973 79.7604C30.9277 79.6337 30.7433 79.4584 30.6433 79.2353C30.369 79.4511 30.0636 79.6236 29.726 79.753C29.3885 79.8825 28.9922 79.9476 28.5373 79.9476C27.199 79.9476 26.5303 79.4153 26.5303 78.3505C26.5303 77.7979 26.6789 77.3756 26.9779 77.0837C27.276 76.79 27.7053 76.5899 28.2657 76.4816C28.828 76.3742 29.5628 76.32 30.4709 76.32V76.041C30.4709 75.8161 30.392 75.6463 30.236 75.5306C30.0819 75.4159 29.882 75.3581 29.638 75.3581C29.4151 75.3581 29.2234 75.3984 29.0619 75.4792C28.9005 75.5582 28.8198 75.6839 28.8198 75.8574V75.8978H26.7027C26.6954 75.8638 26.6917 75.8133 26.6917 75.7473C26.6917 75.2094 26.9485 74.7816 27.4622 74.4658C27.9777 74.1482 28.7143 73.9885 29.671 73.9885ZM30.4709 77.3371C29.859 77.3371 29.4068 77.4032 29.1133 77.5354C28.8216 77.6675 28.6767 77.8465 28.6767 78.0714C28.6767 78.4312 28.9207 78.6112 29.4105 78.6112C29.6912 78.6112 29.9388 78.5359 30.1517 78.3835C30.3645 78.2321 30.4709 78.0448 30.4709 77.8217V77.3371Z" fill="white"/>
<path d="M37.9794 73.9885C38.6417 73.9885 39.1388 74.1721 39.469 74.5393C39.7993 74.9064 39.9644 75.4352 39.9644 76.1254V79.8191H37.8179V76.3861C37.8179 76.142 37.7537 75.9455 37.6272 75.7987C37.5024 75.65 37.3245 75.5747 37.0951 75.5747C36.8282 75.5747 36.6117 75.6619 36.4457 75.8354C36.2815 76.007 36.1999 76.2191 36.1999 76.4706V79.8191H34.0498V74.117H35.811L35.9504 74.9799C36.1724 74.6788 36.465 74.4392 36.8273 74.2602C37.1915 74.0794 37.5758 73.9885 37.9794 73.9885Z" fill="white"/>
<path d="M52.0388 74.6675C52.0388 75.121 51.9159 75.5304 51.6719 75.8976C51.427 76.2647 51.0711 76.5355 50.6042 76.709L52.2552 79.8189H49.5805L48.2633 77.1092H47.379V79.8189H44.9941V72.3911H49.5365C50.0666 72.3911 50.5207 72.4939 50.8977 72.6995C51.2765 72.9033 51.5618 73.1796 51.7526 73.5293C51.9434 73.88 52.0388 74.2591 52.0388 74.6675ZM49.6098 74.7667C49.6098 74.5712 49.5447 74.4087 49.4154 74.2784C49.2879 74.1489 49.1301 74.0838 48.9421 74.0838H47.379V75.457H48.9421C49.1301 75.457 49.2879 75.3909 49.4154 75.2587C49.5447 75.1247 49.6098 74.9604 49.6098 74.7667Z" fill="white"/>
<path d="M56.1806 73.9885C57.2245 73.9885 58.0225 74.2336 58.5729 74.7229C59.1232 75.213 59.3984 75.962 59.3984 76.9699V77.3371H55.124C55.124 77.7465 55.2157 78.0558 55.3991 78.266C55.5826 78.4744 55.8724 78.5781 56.2687 78.5781C56.6283 78.5781 56.8924 78.5028 57.0612 78.3505C57.23 78.199 57.3144 77.9971 57.3144 77.7446H59.3984C59.3984 78.4377 59.1352 78.9783 58.6096 79.3675C58.0831 79.7549 57.3181 79.9476 56.3127 79.9476C55.2533 79.9476 54.4323 79.7016 53.8508 79.2096C53.2683 78.7158 52.9775 77.9686 52.9775 76.9699C52.9775 75.9914 53.261 75.2497 53.8288 74.7449C54.3984 74.241 55.1827 73.9885 56.1806 73.9885ZM56.2687 75.3581C55.5908 75.3581 55.2129 75.6793 55.135 76.32H57.23C57.23 76.0263 57.1438 75.7932 56.9732 75.6187C56.8044 75.4453 56.5696 75.3581 56.2687 75.3581Z" fill="white"/>
<path d="M61.9431 79.8189L59.7856 74.1168H62.0935L63.1429 77.671H63.2162L64.2656 74.1168H66.379L64.1995 79.8189H61.9431Z" fill="white"/>
<path d="M69.9702 73.9885C70.97 73.9885 71.757 74.2437 72.3294 74.7522C72.9018 75.2589 73.188 75.9988 73.188 76.9699C73.188 77.942 72.9018 78.6809 72.3294 79.1876C71.757 79.6943 70.97 79.9476 69.9702 79.9476C68.9722 79.9476 68.1879 79.6971 67.6183 79.195C67.0505 78.691 66.7671 77.9493 66.7671 76.9699C66.7671 75.9914 67.0505 75.2497 67.6183 74.7449C68.1879 74.241 68.9722 73.9885 69.9702 73.9885ZM69.9702 75.4462C69.2657 75.4462 68.9135 75.8528 68.9135 76.6652V77.282C68.9135 78.0879 69.2657 78.49 69.9702 78.49C70.6838 78.49 71.0416 78.0879 71.0416 77.282V76.6652C71.0416 75.8528 70.6838 75.4462 69.9702 75.4462Z" fill="white"/>
<path d="M74.2974 79.819V71.991H76.4438V79.819H74.2974Z" fill="white"/>
<path d="M81.9488 79.8189L81.8094 78.9561C81.5837 79.2645 81.2893 79.5068 80.9251 79.6831C80.5628 79.8593 80.1812 79.9474 79.7804 79.9474C79.1172 79.9474 78.621 79.7639 78.2907 79.3967C77.9605 79.0295 77.7954 78.5008 77.7954 77.8105V74.1168H79.9418V77.5498C79.9418 77.7949 80.0042 77.9923 80.1289 78.141C80.2555 78.2878 80.4344 78.3613 80.6646 78.3613C80.9306 78.3613 81.1462 78.2759 81.3104 78.1043C81.4764 77.9308 81.5599 77.7178 81.5599 77.4654V74.1168H83.7063V79.8189H81.9488Z" fill="white"/>
<path d="M88.8123 74.1168V75.5745H87.6015V77.7444C87.6015 78.0042 87.6437 78.1942 87.73 78.3135C87.818 78.431 87.9767 78.4898 88.2069 78.4898H88.8123V79.7528C88.6381 79.8116 88.4142 79.8575 88.1409 79.8923C87.8694 79.9291 87.6318 79.9474 87.4291 79.9474C86.7953 79.9474 86.3073 79.8318 85.9651 79.6023C85.6248 79.3728 85.4551 78.9808 85.4551 78.4273V75.5745H84.6553V74.1168H85.5432L86.0055 72.3911H87.6015V74.1168H88.8123Z" fill="white"/>
<path d="M89.8779 73.4486V71.991H92.0243V73.4486H89.8779ZM89.8779 79.819V74.1169H92.0243V79.819H89.8779Z" fill="white"/>
<path d="M96.3403 73.9885C97.3401 73.9885 98.1272 74.2437 98.6995 74.7522C99.2719 75.2589 99.5581 75.9988 99.5581 76.9699C99.5581 77.942 99.2719 78.6809 98.6995 79.1876C98.1272 79.6943 97.3401 79.9476 96.3403 79.9476C95.3423 79.9476 94.5581 79.6971 93.9884 79.195C93.4206 78.691 93.1372 77.9493 93.1372 76.9699C93.1372 75.9914 93.4206 75.2497 93.9884 74.7449C94.5581 74.241 95.3423 73.9885 96.3403 73.9885ZM96.3403 75.4462C95.6359 75.4462 95.2836 75.8528 95.2836 76.6652V77.282C95.2836 78.0879 95.6359 78.49 96.3403 78.49C97.0539 78.49 97.4117 78.0879 97.4117 77.282V76.6652C97.4117 75.8528 97.0539 75.4462 96.3403 75.4462Z" fill="white"/>
<path d="M104.521 73.9885C105.183 73.9885 105.68 74.1721 106.011 74.5393C106.341 74.9064 106.506 75.4352 106.506 76.1254V79.8191H104.359V76.3861C104.359 76.142 104.295 75.9455 104.169 75.7987C104.044 75.65 103.866 75.5747 103.637 75.5747C103.37 75.5747 103.153 75.6619 102.987 75.8354C102.823 76.007 102.741 76.2191 102.741 76.4706V79.8191H100.591V74.117H102.352L102.492 74.9799C102.714 74.6788 103.006 74.4392 103.369 74.2602C103.733 74.0794 104.117 73.9885 104.521 73.9885Z" fill="white"/>
<mask id="mask3_609_1289" style="mask-type:luminance" maskUnits="userSpaceOnUse" x="0" y="81" width="107" height="9">
<path d="M0.124512 81.7754H106.733V89.9999H0.124512V81.7754Z" fill="white"/>
</mask>
<g mask="url(#mask3_609_1289)">
<mask id="mask4_609_1289" style="mask-type:luminance" maskUnits="userSpaceOnUse" x="-1" y="76" width="109" height="18">
<path d="M107.13 93.332L-0.698242 88.0026L-0.116693 76.2092L107.711 81.5377L107.13 93.332Z" fill="white"/>
</mask>
<g mask="url(#mask4_609_1289)">
<mask id="mask5_609_1289" style="mask-type:luminance" maskUnits="userSpaceOnUse" x="-1" y="76" width="109" height="18">
<path d="M107.13 93.332L-0.698242 88.0026L-0.116693 76.2092L107.711 81.5377L107.13 93.332Z" fill="white"/>
</mask>
<g mask="url(#mask5_609_1289)">
<path d="M0.849869 83.2991C27.4351 88.9406 54.7303 90.7397 81.8549 89.3968C85.5955 89.2141 89.3316 88.9498 93.0648 88.6505C94.9443 88.4991 96.8202 88.3302 98.696 88.1457C100.699 87.9474 102.901 87.952 104.837 87.3902C106.436 86.9276 107.194 85.1202 106.061 83.7608C105.698 83.3202 105.322 82.8888 104.937 82.4684C103.951 81.3476 102.553 81.9956 102.189 83.1467C99.671 83.4046 97.1164 83.9903 94.6526 84.3079C91.4569 84.7191 88.2538 85.0697 85.0452 85.3671C78.4922 85.9785 71.919 86.4016 65.3413 86.5687C51.385 86.9212 37.4086 86.3484 23.5294 84.8623C16.0536 84.061 8.60814 83.0907 1.19293 81.8479C0.257313 81.6909 -0.0976703 83.0981 0.849869 83.2991Z" fill="white"/>
</g>
</g>
</g>
<path d="M97.2771 15.6404V12.8206H94.6574V15.6404H92.2725V8.21265H94.6574V10.9223H97.2771V8.21265H99.662V15.6404H97.2771Z" fill="white"/>
<path d="M108.305 10.4891C108.305 10.9425 108.182 11.3519 107.938 11.7191C107.693 12.0863 107.337 12.357 106.87 12.5305L108.521 15.6404H105.847L104.529 12.9307H103.645V15.6404H101.26V8.21265H105.803C106.333 8.21265 106.787 8.31545 107.164 8.52107C107.543 8.72484 107.828 9.00114 108.019 9.35086C108.209 9.70151 108.305 10.0806 108.305 10.4891ZM105.876 10.5882C105.876 10.3927 105.811 10.2302 105.681 10.0999C105.554 9.97046 105.396 9.90529 105.208 9.90529H103.645V11.2785H105.208C105.396 11.2785 105.554 11.2124 105.681 11.0802C105.811 10.9462 105.876 10.7819 105.876 10.5882Z" fill="white"/>
<path d="M116.04 9.80994C117.083 9.80994 117.881 10.055 118.432 10.5443C118.982 11.0344 119.257 11.7835 119.257 12.7913V13.1585H114.983C114.983 13.5679 115.075 13.8772 115.258 14.0874C115.441 14.2958 115.731 14.3995 116.128 14.3995C116.487 14.3995 116.751 14.3243 116.92 14.1719C117.089 14.0204 117.173 13.8185 117.173 13.5661H119.257C119.257 14.2591 118.994 14.7997 118.468 15.1889C117.942 15.5763 117.177 15.7691 116.172 15.7691C115.112 15.7691 114.291 15.5231 113.71 15.0311C113.127 14.5372 112.836 13.79 112.836 12.7913C112.836 11.8128 113.12 11.0712 113.688 10.5663C114.257 10.0624 115.042 9.80994 116.04 9.80994ZM116.128 11.1795C115.45 11.1795 115.072 11.5007 114.994 12.1414H117.089C117.089 11.8477 117.003 11.6146 116.832 11.4402C116.663 11.2667 116.428 11.1795 116.128 11.1795Z" fill="white"/>
<path d="M121.802 15.6403L119.645 9.93823H121.952L123.002 13.4924H123.075L124.124 9.93823H126.238L124.058 15.6403H121.802Z" fill="white"/>
<path d="M129.829 9.80994C130.828 9.80994 131.615 10.0651 132.188 10.5736C132.76 11.0803 133.046 11.8202 133.046 12.7913C133.046 13.7634 132.76 14.5023 132.188 15.009C131.615 15.5157 130.828 15.7691 129.829 15.7691C128.831 15.7691 128.046 15.5185 127.477 15.0164C126.909 14.5124 126.625 13.7708 126.625 12.7913C126.625 11.8128 126.909 11.0712 127.477 10.5663C128.046 10.0624 128.831 9.80994 129.829 9.80994ZM129.829 11.2676C129.124 11.2676 128.772 11.6742 128.772 12.4866V13.1034C128.772 13.9094 129.124 14.3114 129.829 14.3114C130.542 14.3114 130.9 13.9094 130.9 13.1034V12.4866C130.9 11.6742 130.542 11.2676 129.829 11.2676Z" fill="white"/>
<path d="M134.157 15.6406V7.81262H136.303V15.6406H134.157Z" fill="white"/>
<path d="M141.809 15.6403L141.669 14.7775C141.444 15.0859 141.149 15.3282 140.785 15.5045C140.423 15.6807 140.041 15.7688 139.64 15.7688C138.977 15.7688 138.481 15.5853 138.151 15.2181C137.82 14.8509 137.655 14.3222 137.655 13.6319V9.93823H139.802V13.3712C139.802 13.6163 139.864 13.8137 139.989 13.9624C140.115 14.1093 140.294 14.1827 140.524 14.1827C140.791 14.1827 141.006 14.0973 141.17 13.9257C141.336 13.7522 141.42 13.5392 141.42 13.2868V9.93823H143.566V15.6403H141.809Z" fill="white"/>
<path d="M148.672 9.93833V11.396H147.461V13.5659C147.461 13.8257 147.503 14.0157 147.589 14.1351C147.677 14.2525 147.836 14.3113 148.066 14.3113H148.672V15.5743C148.497 15.6331 148.274 15.679 148 15.7139C147.729 15.7506 147.491 15.7689 147.288 15.7689C146.655 15.7689 146.167 15.6533 145.825 15.4238C145.484 15.1943 145.315 14.8024 145.315 14.2489V11.396H144.515V9.93833H145.403L145.865 8.21265H147.461V9.93833H148.672Z" fill="white"/>
<path d="M149.737 9.27028V7.81262H151.884V9.27028H149.737ZM149.737 15.6406V9.93852H151.884V15.6406H149.737Z" fill="white"/>
<path d="M156.199 9.80994C157.199 9.80994 157.986 10.0651 158.558 10.5736C159.131 11.0803 159.417 11.8202 159.417 12.7913C159.417 13.7634 159.131 14.5023 158.558 15.009C157.986 15.5157 157.199 15.7691 156.199 15.7691C155.201 15.7691 154.417 15.5185 153.847 15.0164C153.28 14.5124 152.996 13.7708 152.996 12.7913C152.996 11.8128 153.28 11.0712 153.847 10.5663C154.417 10.0624 155.201 9.80994 156.199 9.80994ZM156.199 11.2676C155.495 11.2676 155.143 11.6742 155.143 12.4866V13.1034C155.143 13.9094 155.495 14.3114 156.199 14.3114C156.913 14.3114 157.271 13.9094 157.271 13.1034V12.4866C157.271 11.6742 156.913 11.2676 156.199 11.2676Z" fill="white"/>
<path d="M164.381 9.80994C165.043 9.80994 165.54 9.99352 165.87 10.3607C166.201 10.7279 166.366 11.2566 166.366 11.9468V15.6406H164.219V12.2075C164.219 11.9634 164.155 11.7669 164.029 11.6201C163.904 11.4714 163.726 11.3961 163.497 11.3961C163.23 11.3961 163.013 11.4833 162.847 11.6568C162.683 11.8284 162.601 12.0405 162.601 12.292V15.6406H160.451V9.93845H162.212L162.352 10.8013C162.574 10.5002 162.866 10.2606 163.229 10.0816C163.593 9.90081 163.977 9.80994 164.381 9.80994Z" fill="white"/>
<path d="M132.885 66.6774L116.282 22.8193H134.048L142.098 50.1476H142.678L150.731 22.8193H167L150.232 66.6774H132.885Z" fill="white"/>
</svg>
