<svg width="24" height="22" viewBox="0 0 24 22" fill="none" xmlns="http://www.w3.org/2000/svg">
<path d="M1.43961 19.3991C1.82237 19.4019 2.1904 19.2565 2.46098 18.9952C2.73179 18.7342 2.88259 18.3792 2.87965 18.0099C2.87536 15.0333 4.42972 12.256 7.01193 10.6267C9.5938 8.99714 12.8545 8.73591 15.6801 9.93233L17.8133 7.87442V7.87416C16.0355 6.9217 14.0336 6.42556 12 6.43357C8.81914 6.43899 5.77009 7.66049 3.52107 9.83033C1.27185 12.0002 0.00566527 14.9416 4.238e-05 18.01C-0.00290409 18.3793 0.147897 18.7343 0.418708 18.9953C0.689245 19.2566 1.05728 19.4021 1.44009 19.3992L1.43961 19.3991Z" fill="#A66DF2"/>
<path fill-rule="evenodd" clip-rule="evenodd" d="M13.493 14.6038C13.0221 14.4053 12.5134 14.3038 11.9997 14.3053C10.9813 14.3053 10.0044 14.6955 9.28438 15.3903C8.56411 16.0849 8.15967 17.0273 8.15967 18.0098C8.15967 18.9923 8.56413 19.9347 9.28438 20.6293C10.0044 21.3242 10.9813 21.7143 11.9997 21.7143C13.0181 21.7143 13.995 21.3241 14.715 20.6293C15.4353 19.9347 15.8397 18.9923 15.8397 18.0098C15.8424 17.5173 15.7371 17.03 15.5303 16.5795L22.133 10.2098C22.4081 9.95377 22.5635 9.60105 22.5635 9.23232C22.5635 8.8636 22.4081 8.51061 22.133 8.2548C21.8663 7.99199 21.5009 7.84393 21.1198 7.84393C20.7386 7.84393 20.3732 7.992 20.1065 8.2548L19.4025 8.93391L17.333 10.8786L13.493 14.6038ZM19.9144 13.6673C20.0882 13.9446 20.2417 14.2335 20.3729 14.5317C20.8677 15.6364 21.1219 16.8271 21.1197 18.0305C21.1197 18.5267 21.3943 18.9854 21.8398 19.2334C22.2852 19.4818 22.8343 19.4818 23.2798 19.2334C23.7252 18.9854 23.9998 18.5267 23.9998 18.0305C24.0041 16.0834 23.4938 14.1674 22.5172 12.4634C22.3607 12.189 22.1901 11.9216 22.0053 11.6608L19.9144 13.6673ZM12.0255 19.3649C12.7841 19.3649 13.3991 18.7716 13.3991 18.0397C13.3991 17.3079 12.7841 16.7146 12.0255 16.7146C11.2668 16.7146 10.6518 17.3079 10.6518 18.0397C10.6518 18.7716 11.2668 19.3649 12.0255 19.3649Z" fill="#A66DF2"/>
<path d="M2.17726 4.79267L2.89934 5.06279C2.92082 5.07082 2.94285 5.07326 2.96408 5.07015C2.98544 5.06703 3.00634 5.05846 3.02524 5.04454L3.65767 4.57958C3.70139 4.54702 3.75108 4.52859 3.80173 4.52441C3.85225 4.52023 3.90349 4.5305 3.95242 4.55622C3.99945 4.58185 4.03493 4.61736 4.05847 4.65976C4.08259 4.70337 4.09407 4.75386 4.0903 4.80688L4.03623 5.57646C4.03459 5.59963 4.03846 5.62137 4.04741 5.6402C4.05632 5.65894 4.07056 5.67564 4.08956 5.68888L4.71932 6.13067C4.7618 6.16103 4.79285 6.20098 4.81087 6.24631C4.82923 6.29246 4.83407 6.34418 4.8236 6.39688C4.81323 6.44935 4.78878 6.49621 4.7537 6.53342C4.71888 6.57043 4.67361 6.59794 4.62145 6.61206L3.86583 6.81765C3.84322 6.8238 3.82343 6.8348 3.80775 6.84958C3.79208 6.86436 3.78009 6.8833 3.77277 6.90536L3.52801 7.64264C3.51109 7.69363 3.48118 7.73697 3.44216 7.76957C3.40266 7.80247 3.35444 7.82427 3.30092 7.83202C3.24726 7.83977 3.19537 7.8324 3.14972 7.81197C3.10416 7.79159 3.06498 7.75812 3.03635 7.71357L2.62325 7.07075C2.61075 7.05138 2.59469 7.03636 2.57625 7.02664C2.55773 7.01684 2.53598 7.01195 2.51253 7.01242L1.73379 7.02778C1.68015 7.02887 1.62994 7.01501 1.58723 6.98907C1.54451 6.96312 1.50982 6.92499 1.48721 6.87734C1.46432 6.82926 1.45658 6.77814 1.46323 6.7283C1.46996 6.6784 1.49101 6.63002 1.52571 6.58822L2.02618 5.98583C2.04116 5.96769 2.05085 5.94758 2.05504 5.9266C2.05915 5.90586 2.05785 5.88383 2.05082 5.86219L1.8142 5.13452C1.79775 5.08382 1.79648 5.0318 1.80929 4.98323L1.81119 4.97711C1.82469 4.93035 1.85088 4.88718 1.88851 4.85172C1.92803 4.81447 1.97506 4.7902 2.02505 4.77987C2.07466 4.7696 2.12699 4.77338 2.17737 4.79223L2.17726 4.79267Z" fill="#A66DF2"/>
<path d="M7.30151 1.94838L7.99755 2.61014C8.01825 2.62982 8.04237 2.64335 8.06832 2.6501C8.09441 2.6569 8.12269 2.65722 8.15132 2.65041L9.10885 2.42362C9.17525 2.40747 9.2415 2.41047 9.30181 2.4303C9.36195 2.45007 9.41575 2.4868 9.45924 2.54017C9.50059 2.59251 9.52376 2.65059 9.52979 2.71078C9.53588 2.77264 9.52404 2.83626 9.49341 2.89537L9.0496 3.75365C9.03623 3.77949 9.02989 3.80637 9.03085 3.83236C9.03179 3.85823 9.03987 3.88435 9.05516 3.90882L9.55993 4.723C9.5937 4.77857 9.60958 4.8396 9.60781 4.90047C9.60603 4.96245 9.58595 5.02424 9.54778 5.07973C9.50983 5.13499 9.45848 5.17696 9.39971 5.20268C9.34133 5.22828 9.27565 5.23788 9.2087 5.22872L8.23819 5.09745C8.20915 5.09352 8.18095 5.09654 8.1556 5.1059C8.13025 5.11526 8.10708 5.1312 8.08772 5.15299L7.44073 5.88139C7.39601 5.93177 7.34013 5.96704 7.27911 5.98552C7.21739 6.00412 7.15116 6.00572 7.08579 5.9886C7.02027 5.9714 6.96428 5.93768 6.92193 5.89199C6.87967 5.84641 6.85124 5.78888 6.84042 5.72374L6.68438 4.78389C6.67962 4.75553 6.66861 4.73046 6.65223 4.71032C6.6358 4.69004 6.61322 4.67384 6.58604 4.66297L5.6833 4.30178C5.62111 4.27694 5.57027 4.23659 5.53404 4.18598C5.4978 4.13538 5.47684 4.07467 5.47448 4.00891C5.47202 3.94251 5.48846 3.87998 5.52083 3.82593C5.55331 3.77184 5.6015 3.72647 5.66211 3.69531L6.53612 3.24635C6.56234 3.23279 6.58345 3.2144 6.59867 3.19231C6.61368 3.17047 6.62312 3.14452 6.62576 3.11623L6.71466 2.16469C6.7209 2.09841 6.74523 2.038 6.78404 1.98841L6.78926 1.9823C6.82797 1.93511 6.87949 1.89824 6.94032 1.87578C7.00423 1.85219 7.07032 1.84717 7.13291 1.85962C7.19502 1.87195 7.2533 1.90175 7.30186 1.94792L7.30151 1.94838Z" fill="#A66DF2"/>
<path d="M14.0979 0.658704L14.5493 1.71469C14.5627 1.74609 14.5828 1.77231 14.6082 1.79192C14.6338 1.81165 14.6648 1.82525 14.6996 1.83116L15.8639 2.02984C15.9448 2.04315 16.0165 2.0775 16.0735 2.12764C16.1304 2.17763 16.1721 2.24334 16.1946 2.32258C16.2152 2.39968 16.213 2.47459 16.1909 2.54379C16.1681 2.61486 16.1246 2.67946 16.0626 2.7303L15.1631 3.46877C15.136 3.491 15.1162 3.51766 15.1048 3.54678C15.0935 3.57575 15.0899 3.60834 15.0951 3.64249L15.2627 4.77691C15.2734 4.85401 15.2618 4.92876 15.2307 4.99506C15.1992 5.06257 15.1475 5.1213 15.0789 5.16459C15.0106 5.20776 14.934 5.22997 14.8569 5.23078C14.7803 5.23165 14.7032 5.21146 14.6338 5.16998L13.6263 4.57036C13.5961 4.55242 13.5636 4.54254 13.5311 4.54098C13.4987 4.53941 13.4655 4.54614 13.4338 4.5611L12.3723 5.06112C12.2989 5.09571 12.2204 5.10842 12.1443 5.1002C12.0674 5.09179 11.9936 5.06251 11.9297 5.01299C11.8656 4.96331 11.82 4.89989 11.7951 4.82966C11.7703 4.75958 11.7664 4.68282 11.7856 4.60592L12.0626 3.49635C12.0709 3.46286 12.0707 3.43005 12.0623 3.40016C12.0539 3.37009 12.0367 3.34165 12.0119 3.31692L11.189 2.49553C11.1323 2.43898 11.0955 2.37066 11.0797 2.29788C11.0639 2.22509 11.0698 2.14832 11.0986 2.07469C11.1277 2.00031 11.1757 1.93906 11.2372 1.89463C11.2988 1.8502 11.3737 1.82276 11.4554 1.8168L12.6337 1.73134C12.6691 1.72867 12.7012 1.71828 12.7285 1.70106C12.7555 1.68401 12.7783 1.65982 12.7947 1.62986L13.3474 0.622206C13.3859 0.552039 13.4416 0.496819 13.5081 0.460323L13.5168 0.456034C13.582 0.422142 13.6565 0.405621 13.7343 0.409367C13.816 0.413302 13.8913 0.438744 13.9544 0.481806C14.017 0.524516 14.0664 0.585024 14.0979 0.658704Z" fill="#A66DF2"/>
<path d="M21.0748 1.02367L21.4875 2.29755C21.4997 2.33543 21.5204 2.36799 21.5478 2.39341C21.5753 2.41898 21.61 2.43801 21.6498 2.4485L22.9816 2.80027C23.0742 2.82414 23.1538 2.8715 23.2148 2.93568C23.2756 2.99967 23.3172 3.08037 23.3349 3.17476C23.3506 3.26649 23.3401 3.3533 23.3071 3.43142C23.2731 3.51162 23.2157 3.58217 23.1383 3.6348L22.015 4.39944C21.9811 4.42246 21.9553 4.45138 21.939 4.48403C21.9227 4.51652 21.9152 4.55402 21.9175 4.59423L21.9922 5.92978C21.9965 6.02047 21.975 6.10611 21.932 6.17993C21.8881 6.25509 21.8219 6.31797 21.7376 6.36115C21.6537 6.40421 21.5622 6.42206 21.4726 6.415C21.3835 6.40805 21.2961 6.37658 21.2198 6.32118L20.1126 5.51982C20.0795 5.49584 20.0427 5.48097 20.0052 5.47579C19.9677 5.47061 19.9284 5.47497 19.8899 5.48906L18.6036 5.9598C18.5147 5.99238 18.4222 5.999 18.3346 5.98154C18.2461 5.96377 18.1634 5.92209 18.0944 5.85791C18.0252 5.79354 17.9789 5.71511 17.9575 5.63092C17.9361 5.54691 17.9397 5.45731 17.9701 5.36995L18.4094 4.10947C18.4226 4.07141 18.4259 4.03327 18.4193 3.99767C18.4127 3.96186 18.3957 3.92702 18.3696 3.89572L17.5003 2.85583C17.4404 2.78424 17.4049 2.70103 17.3943 2.61482C17.3836 2.52862 17.3986 2.44002 17.4399 2.35746C17.4815 2.27405 17.5438 2.20787 17.6199 2.16263C17.6963 2.11741 17.7861 2.09329 17.8817 2.09486L19.2599 2.11794C19.3013 2.11851 19.3397 2.10977 19.3733 2.0926C19.4064 2.07559 19.4355 2.04986 19.4578 2.01675L20.2066 0.903312C20.2588 0.825787 20.3294 0.767408 20.4105 0.731908L20.4211 0.727826C20.5004 0.69522 20.5887 0.683754 20.6787 0.696189C20.7732 0.709251 20.858 0.746632 20.9268 0.803218C20.995 0.859347 21.0467 0.934457 21.0755 1.02334L21.0748 1.02367Z" fill="#A66DF2"/>
</svg>
