<svg width="24" height="22" viewBox="0 0 24 22" fill="none" xmlns="http://www.w3.org/2000/svg">
<path d="M1.09091 9.30835H5.45455C6.05698 9.30835 6.54545 9.93117 6.54545 10.4362V17.2031C6.54545 17.8259 6.05698 18.3309 5.45455 18.3309H1.09091C0.488472 18.3309 0 17.7081 0 17.2031V10.4362C0 9.81335 0.488472 9.30835 1.09091 9.30835Z" fill="white"/>
<path d="M8.72714 4.79712H14.1817C14.7841 4.79712 15.2726 5.41994 15.2726 5.92494V17.2031C15.2726 17.826 14.7841 18.331 14.1817 18.331H8.72714C8.1247 18.331 7.63623 17.7081 7.63623 17.2031V5.92494C7.63623 5.30212 8.1247 4.79712 8.72714 4.79712Z" fill="white"/>
<path d="M17.4547 0.285767H22.9092C23.5117 0.285767 24.0001 0.908587 24.0001 1.41359V17.2031C24.0001 17.8259 23.5117 18.3309 22.9092 18.3309H17.4547C16.8522 18.3309 16.3638 17.7081 16.3638 17.2031V1.41359C16.3638 0.790766 16.8522 0.285767 17.4547 0.285767Z" fill="white"/>
<path d="M22.9091 19.4587H1.09089C0.70104 19.4587 0.340909 19.6737 0.146104 20.0227C-0.0487013 20.3716 -0.0487013 20.8016 0.146104 21.1505C0.340909 21.4994 0.701053 21.7144 1.09089 21.7144H22.9091C23.2989 21.7144 23.6591 21.4994 23.8539 21.1505C24.0487 20.8015 24.0487 20.3716 23.8539 20.0227C23.6591 19.6737 23.2989 19.4587 22.9091 19.4587Z" fill="white"/>
</svg>
