<svg width="18" height="18" viewBox="0 0 18 18" fill="none" xmlns="http://www.w3.org/2000/svg">
<path d="M8.99992 0.000154202C6.61299 0.000154202 4.32388 0.948323 2.63599 2.63614C0.948168 4.32396 0 6.61326 0 9.00008C0 11.3869 0.948168 13.6761 2.63599 15.364C4.3238 17.0518 6.61311 18 8.99992 18C11.3867 18 13.676 17.0518 15.3639 15.364C17.0517 13.6762 17.9998 11.3869 17.9998 9.00008C17.9998 7.4203 17.584 5.86825 16.7942 4.49992C16.0042 3.13182 14.868 1.99562 13.4999 1.20567C12.1317 0.415841 10.5796 0 8.99977 0L8.99992 0.000154202ZM8.99992 16.2002C7.09032 16.2002 5.25894 15.4416 3.90885 14.0913C2.55853 12.7411 1.79991 10.9098 1.79991 9.00023C1.79991 7.0907 2.55853 5.25924 3.90885 3.90916C5.25901 2.55884 7.09039 1.80022 8.99992 1.80022C10.9095 1.80022 12.7409 2.55884 14.091 3.90916C15.4413 5.25932 16.1999 7.0907 16.1999 9.00023C16.1999 10.2641 15.8673 11.5057 15.2352 12.6002C14.6033 13.6948 13.6944 14.6037 12.5998 15.2356C11.5053 15.8676 10.2637 16.2003 8.99985 16.2003L8.99992 16.2002Z" fill="white"/>
<path d="M11.5472 6.45288C11.7788 6.65131 12.0952 6.71896 12.3878 6.63248C12.6803 6.54584 12.9092 6.31712 12.9956 6.02451C13.0821 5.73206 13.0146 5.41566 12.8162 5.18392C11.8032 4.17203 10.4297 3.60383 8.99792 3.60445C7.5661 3.6049 6.19303 4.17415 5.18083 5.18677C4.16848 6.19943 3.59985 7.57262 3.59985 9.00448C3.59985 10.4363 4.16848 11.8095 5.18083 12.8222C6.19303 13.8348 7.5661 14.4039 8.99792 14.4045C10.4297 14.405 11.8032 13.8369 12.8162 12.825C13.0066 12.6619 13.1204 12.4267 13.13 12.1761C13.1398 11.9255 13.0445 11.6824 12.8671 11.505C12.6898 11.3277 12.4466 11.2325 12.1961 11.2421C11.9455 11.2518 11.7103 11.3655 11.5473 11.556C10.8608 12.2108 9.94884 12.576 9.00021 12.576C8.05157 12.576 7.13959 12.2108 6.45313 11.556C5.77724 10.8808 5.39738 9.96442 5.39738 9.00904C5.39738 8.05351 5.77722 7.13727 6.45313 6.46196C7.13839 5.80609 8.04992 5.4392 8.99839 5.43754C9.94702 5.43573 10.8598 5.79945 11.5473 6.4529L11.5472 6.45288Z" fill="white"/>
</svg>
