<svg width="22" height="21" viewBox="0 0 22 21" fill="none" xmlns="http://www.w3.org/2000/svg">
<path d="M6.57714 20H14.9429C18.0226 20 20.52 17.5691 20.52 14.5714V6.42857C20.52 3.43037 18.0226 1 14.9429 1H6.57714C3.49689 1 1 3.43037 1 6.42857V14.5714C1 17.5691 3.49689 20 6.57714 20Z" stroke="white" stroke-width="1.4" stroke-miterlimit="10"/>
<path d="M10.7606 5.88914C8.14268 5.88914 6.02002 7.95526 6.02002 10.5034C6.02002 13.0516 8.14268 15.1177 10.7606 15.1177C13.3785 15.1177 15.5012 13.0516 15.5012 10.5034C15.5012 7.95526 13.3785 5.88914 10.7606 5.88914Z" stroke="white" stroke-width="1.4" stroke-miterlimit="10"/>
<path d="M16.3371 3.98721C15.7208 3.98721 15.2217 4.47307 15.2217 5.07293C15.2217 5.67278 15.7208 6.15864 16.3371 6.15864C16.9534 6.15864 17.4525 5.67278 17.4525 5.07293C17.4525 4.47307 16.9534 3.98721 16.3371 3.98721Z" fill="white"/>
</svg>
