<svg width="22" height="21" viewBox="0 0 22 21" fill="none" xmlns="http://www.w3.org/2000/svg">
<path d="M3.1124 20H18.7284C19.8064 20 20.6804 19.1493 20.6804 18.1V2.9C20.6804 1.85072 19.8064 1 18.7284 1H3.1124C2.03441 1 1.1604 1.85072 1.1604 2.9V18.1C1.1604 19.1493 2.03441 20 3.1124 20Z" stroke="white" stroke-width="1.4" stroke-miterlimit="10" stroke-linecap="round" stroke-linejoin="round"/>
<path d="M4.08813 8.12495H7.01613V14.3641V17.15H4.08813V8.12495Z" stroke="white" stroke-width="1.4" stroke-miterlimit="10" stroke-linecap="round" stroke-linejoin="round"/>
<path d="M5.55213 6.69633C4.67373 6.69633 4.08813 6.15816 4.08813 5.49316C4.08813 4.82816 4.67373 4.32133 5.55213 4.32133C6.43053 4.32133 6.97953 4.82816 7.01613 5.49316C7.01613 6.15816 6.46713 6.69633 5.55213 6.69633Z" stroke="white" stroke-width="1.4" stroke-miterlimit="10" stroke-linecap="round" stroke-linejoin="round"/>
<path d="M17.7522 17.15H14.8242C14.8242 17.15 14.8242 12.7529 14.8242 12.4C14.8242 11.45 14.3362 10.5 13.1162 10.4795C11.907 10.4586 11.4082 11.45 11.4082 12.4C11.4082 12.8317 11.4082 17.15 11.4082 17.15H8.48022V8.12495H11.4082V9.34143C11.4082 9.34143 12.3501 8.12495 14.245 8.12495C16.1799 8.12495 17.7522 9.4198 17.7522 12.0489V17.15Z" stroke="white" stroke-width="1.4" stroke-miterlimit="10" stroke-linecap="round" stroke-linejoin="round"/>
</svg>
