<svg width="22" height="17" viewBox="0 0 22 17" fill="none" xmlns="http://www.w3.org/2000/svg">
<path d="M20.8393 2.69944C20.1203 3.00493 19.3493 3.21028 18.5384 3.30419C19.366 2.82881 20.0012 2.07639 20.3001 1.18135C19.5262 1.62049 18.6681 1.94001 17.7563 2.11185C17.0263 1.36527 15.9857 0.900024 14.834 0.900024C12.6217 0.900024 10.8286 2.61801 10.8286 4.73694C10.8286 5.03737 10.8644 5.33 10.9331 5.61133C7.60491 5.45079 4.65367 3.92335 2.67804 1.60179C2.33318 2.16991 2.13635 2.82881 2.13635 3.53175C2.13635 4.8628 2.84193 6.03683 3.91758 6.72574C3.2604 6.70586 2.64388 6.53286 2.10381 6.24529C2.10381 6.26166 2.10381 6.27724 2.10381 6.294C2.10381 8.15382 3.48407 9.70269 5.31492 10.0569C4.97982 10.1453 4.62601 10.1917 4.26082 10.1917C4.00217 10.1917 3.75125 10.1675 3.50603 10.1223C4.01722 11.6455 5.49548 12.7568 7.24785 12.7876C5.87816 13.8167 4.15142 14.4292 2.27421 14.4292C1.95009 14.4292 1.63207 14.412 1.31934 14.3758C3.09081 15.4649 5.19658 16.1 7.4581 16.1C14.8246 16.1 18.8539 10.2525 18.8539 5.18349C18.8539 5.01633 18.8495 4.84994 18.8422 4.68668C19.6242 4.14545 20.3029 3.46901 20.8393 2.69944Z" stroke="white" stroke-width="1.4" stroke-miterlimit="10" stroke-linecap="round" stroke-linejoin="round"/>
</svg>
