<svg width="22" height="21" viewBox="0 0 22 21" fill="none" xmlns="http://www.w3.org/2000/svg">
<path d="M8.62357 6.19132C8.41107 5.70034 8.19502 5.76684 8.03398 5.75907C7.88137 5.75216 7.70702 5.75 7.53223 5.75C7.35743 5.75 7.07395 5.81305 6.8335 6.06523C6.59305 6.31741 5.9165 6.92627 5.9165 8.16559C5.9165 9.40491 6.85524 10.6015 6.98611 10.7699C7.11743 10.9379 8.83341 13.4808 11.4611 14.5716C12.0862 14.8307 12.5742 14.9857 12.9543 15.1019C13.5817 15.2936 14.1531 15.2664 14.6047 15.2016C15.1078 15.1295 16.1547 14.5923 16.373 14.0046C16.5913 13.4165 16.5913 12.9126 16.5256 12.8076C16.46 12.7027 16.2852 12.6397 16.0234 12.5136C15.7617 12.3875 14.4734 11.7782 14.2329 11.6948C13.9925 11.6106 13.8181 11.5688 13.6433 11.8209C13.4685 12.0731 12.9668 12.6397 12.8142 12.8081C12.6615 12.976 12.5085 12.9972 12.2467 12.8711C11.985 12.745 11.1403 12.4795 10.1404 11.6214C9.36134 10.9538 8.83563 10.1295 8.68302 9.87732C8.53041 9.62514 8.66661 9.48911 8.79792 9.36345C8.91593 9.25032 9.05967 9.06939 9.19098 8.92214C9.3223 8.77489 9.36578 8.66995 9.45273 8.50198C9.53968 8.334 9.4962 8.18675 9.43055 8.06066C9.36578 7.93457 8.84184 6.69568 8.62357 6.19132Z" stroke="white" stroke-width="1.4" stroke-miterlimit="10"/>
<path d="M11.24 1C5.8498 1 1.47998 5.25341 1.47998 10.5C1.47998 12.2584 1.97286 13.9045 2.82864 15.3169L1.47998 20L6.48154 18.7939C7.88964 19.5608 9.51157 20 11.24 20C16.6302 20 21 15.7466 21 10.5C21 5.25341 16.6302 1 11.24 1Z" stroke="white" stroke-width="1.4" stroke-miterlimit="10" stroke-linejoin="round"/>
</svg>
