<svg width="20" height="20" viewBox="0 0 20 20" fill="none" xmlns="http://www.w3.org/2000/svg">
<path d="M15.2498 8.95829C15.2498 12.4331 12.433 15.25 8.95817 15.25V17.25C13.5375 17.25 17.2498 13.5377 17.2498 8.95829H15.2498ZM8.95817 15.25C5.48338 15.25 2.6665 12.4331 2.6665 8.95829H0.666504C0.666504 13.5377 4.37881 17.25 8.95817 17.25V15.25ZM2.6665 8.95829C2.6665 5.4835 5.48338 2.66663 8.95817 2.66663V0.666626C4.37881 0.666626 0.666504 4.37893 0.666504 8.95829H2.6665ZM8.95817 2.66663C12.433 2.66663 15.2498 5.4835 15.2498 8.95829H17.2498C17.2498 4.37893 13.5375 0.666626 8.95817 0.666626V2.66663Z" fill="#37474F"/>
<path d="M18.3333 18.3333L15 15" stroke="#37474F" stroke-width="2" stroke-linecap="round"/>
</svg>
